<svg width="39" height="16" viewBox="0 0 39 16" fill="none" xmlns="http://www.w3.org/2000/svg">
<path d="M23.6519 3.50552V2.90884H22.6989V3.50552C22.6989 4.99724 20.7928 6.24033 18.9116 6.50552L19.2928 7.25967C20.913 6.98619 22.5166 6.0953 23.1796 4.80663C23.8467 6.08702 25.4503 6.98619 27.0746 7.25967L27.4475 6.50552C25.5663 6.24033 23.6519 4.97238 23.6519 3.50552ZM18.4227 9.17403H22.6989V12.953H23.6022V9.17403H27.9199V8.40331H18.4227V9.17403ZM37.6691 2.53591H36.7492V5.25414H34.6442V6.01657H36.7492V8.74309H37.6691V2.53591ZM29.0752 7.91436L29.5558 8.64365C30.7989 8.17541 31.7644 7.20166 32.2119 5.98343C32.6636 7.05663 33.571 7.93094 34.7437 8.35359L35.2244 7.61602C33.6995 7.09392 32.6553 5.8011 32.6553 4.44199V4.06077H34.984V3.29834H29.3735V4.06077H31.7271V4.45028C31.7271 5.94199 30.6249 7.35083 29.0752 7.91436ZM30.7244 11.0055C30.7161 12.232 32.042 12.9365 34.2133 12.9448C36.3763 12.9365 37.7023 12.232 37.7023 11.0055C37.7023 9.77901 36.3763 9.0663 34.2133 9.0663C32.042 9.0663 30.7161 9.77901 30.7244 11.0055ZM31.636 11.0055C31.6277 10.2431 32.6139 9.78729 34.2133 9.78729C35.8045 9.78729 36.7907 10.2431 36.7907 11.0055C36.7907 11.7597 35.8045 12.2155 34.2133 12.2072C32.6139 12.2155 31.6277 11.7597 31.636 11.0055Z" fill="#A1A1A1"/>
<path d="M9.13268 3.37665L2.66602 9.30998V13.0433H6.39935L12.7327 7.24332C13.7993 6.24332 13.866 4.57665 12.866 3.50998C11.866 2.44332 10.1993 2.37665 9.13268 3.37665ZM5.99935 12.11H3.66602L3.59935 9.77665L8.46602 5.30998C9.19935 4.64332 10.1993 4.70998 10.866 5.37665C11.466 6.04332 11.466 7.10998 10.7993 7.70998L5.99935 12.11Z" fill="#A1A1A1"/>
</svg>
