<svg width="20" height="20" viewBox="0 0 20 20" fill="none" xmlns="http://www.w3.org/2000/svg">
<path fill-rule="evenodd" clip-rule="evenodd" d="M2.5 18.2594V5.83333C2.5 3.99238 3.99238 2.5 5.83333 2.5H14.1667C16.0076 2.5 17.5 3.99238 17.5 5.83333V11.6667C17.5 13.5076 16.0076 15 14.1667 15H6.57422L2.5 18.2594ZM4.16667 5.83333C4.16667 4.91286 4.91286 4.16667 5.83333 4.16667H14.1667C15.0871 4.16667 15.8333 4.91286 15.8333 5.83333V11.6667C15.8333 12.5871 15.0871 13.3333 14.1667 13.3333H6.2819C6.12234 13.3333 5.96678 13.3791 5.83333 13.4644C5.80853 13.4802 5.78448 13.4974 5.76132 13.5159L4.16667 14.7917V5.83333Z" fill="#DFDFE3"/>
<rect x="8.95898" y="7.7085" width="2.08333" height="2.08333" rx="1.04167" fill="#DFDFE3"/>
<rect x="12.084" y="7.7085" width="2.08333" height="2.08333" rx="1.04167" fill="#DFDFE3"/>
<rect x="5.83398" y="7.7085" width="2.08333" height="2.08333" rx="1.04167" fill="#DFDFE3"/>
</svg>
